<svg xmlns="http://www.w3.org/2000/svg" version="1.1" xmlns:xlink="http://www.w3.org/1999/xlink" xmlns:svgjs="http://svgjs.dev/svgjs" width="2000" height="472" viewBox="0 0 2000 472"><g transform="matrix(1,0,0,1,-12.054216721433363,-12.813486466251533)"><svg viewBox="0 0 398 94" data-background-color="#faf9f6" preserveAspectRatio="xMidYMid meet" height="472" width="2000" xmlns="http://www.w3.org/2000/svg" xmlns:xlink="http://www.w3.org/1999/xlink"><g id="tight-bounds" transform="matrix(1,0,0,1,2.3987891275652373,2.5529999043922373)"><svg viewBox="0 0 395.52 88.89400019121554" height="88.89400019121554" width="395.52"><g><svg viewBox="0 0 578.4176643388009 130.00065727228917" height="88.89400019121554" width="395.52"><g><rect width="8.48306326591414" height="112.88045493975903" x="152.20762917258799" y="8.56010116626507" fill="#2b9348" opacity="1" stroke-width="0" stroke="transparent" fill-opacity="1" class="rect-yte-0" data-fill-palette-color="primary" rx="1%" id="yte-0" data-palette-color="#2b9348"></rect></g><g transform="matrix(1,0,0,1,182.89766433880095,17.966805744578323)"><svg viewBox="0 0 395.52 94.06704578313253" height="94.06704578313253" width="395.52"><g id="textblocktransform"><svg viewBox="0 0 395.52 94.06704578313253" height="94.06704578313253" width="395.52" id="textblock"><g><svg viewBox="0 0 395.52 94.06704578313253" height="94.06704578313253" width="395.52"><g transform="matrix(1,0,0,1,0,0)"><svg width="395.52" viewBox="2.2 -38.85 207.48000000000002 49.35" height="94.06704578313253" data-palette-color="#2b9348"><path d="M15.1 0.65Q6.95 0.65 2.2-5.8L2.2-5.8 5.35-8.3Q7.3-5.7 9.73-4.38 12.15-3.05 15.3-3.05L15.3-3.05Q19.25-3.05 21.38-4.95 23.5-6.85 23.5-10.15L23.5-10.15Q23.5-12.8 21.9-14.28 20.3-15.75 16.6-16.55L16.6-16.55 13.6-17.25Q8.45-18.4 5.88-20.83 3.3-23.25 3.3-27.3L3.3-27.3Q3.3-32.1 6.6-34.7 9.9-37.3 15.4-37.3L15.4-37.3Q23.3-37.3 27.4-31.35L27.4-31.35 24.25-29.1Q21-33.6 15.2-33.6L15.2-33.6Q11.5-33.6 9.47-32.02 7.45-30.45 7.45-27.45L7.45-27.45Q7.45-24.8 9.13-23.38 10.8-21.95 14.45-21.15L14.45-21.15 17.5-20.5Q22.8-19.3 25.23-16.85 27.65-14.4 27.65-10.35L27.65-10.35Q27.65-5.3 24.3-2.33 20.95 0.65 15.1 0.65L15.1 0.65ZM45.05 0.65Q41.45 0.65 38.7-1.1 35.95-2.85 34.42-6.08 32.9-9.3 32.9-13.55L32.9-13.55Q32.9-17.8 34.42-21 35.95-24.2 38.7-25.95 41.45-27.7 45.05-27.7L45.05-27.7Q48.65-27.7 51.42-25.95 54.2-24.2 55.72-21 57.25-17.8 57.25-13.55L57.25-13.55Q57.25-9.3 55.72-6.08 54.2-2.85 51.42-1.1 48.65 0.65 45.05 0.65L45.05 0.65ZM45.05-2.9Q48.65-2.9 50.8-5.13 52.95-7.35 52.95-11.6L52.95-11.6 52.95-15.45Q52.95-19.7 50.8-21.93 48.65-24.15 45.05-24.15L45.05-24.15Q41.5-24.15 39.35-21.93 37.2-19.7 37.2-15.45L37.2-15.45 37.2-11.6Q37.2-7.35 39.35-5.13 41.5-2.9 45.05-2.9L45.05-2.9ZM72.3 0L68.65 0Q66.59 0 65.45-1.18 64.3-2.35 64.3-4.2L64.3-4.2 64.3-38.85 68.3-38.85 68.3-3.5 72.3-3.5 72.3 0ZM85.39 0.65Q81.14 0.65 78.77-1.55 76.39-3.75 76.39-7.55L76.39-7.55Q76.39-11.4 79.24-13.43 82.09-15.45 87.84-15.45L87.84-15.45 93.29-15.45 93.29-18.15Q93.29-21.15 91.67-22.7 90.04-24.25 86.79-24.25L86.79-24.25Q82.24-24.25 79.79-20.15L79.79-20.15 77.39-22.4Q78.59-24.75 81.07-26.23 83.54-27.7 86.99-27.7L86.99-27.7Q91.84-27.7 94.57-25.3 97.29-22.9 97.29-18.6L97.29-18.6 97.29-3.5 100.39-3.5 100.39 0 98.24 0Q94.09 0 93.54-4.4L93.54-4.4 93.29-4.4Q92.44-1.95 90.37-0.65 88.29 0.65 85.39 0.65L85.39 0.65ZM86.09-2.75Q89.19-2.75 91.24-4.23 93.29-5.7 93.29-7.9L93.29-7.9 93.29-12.45 87.64-12.45Q84.09-12.45 82.34-11.38 80.59-10.3 80.59-8.25L80.59-8.25 80.59-7.15Q80.59-5.05 82.07-3.9 83.54-2.75 86.09-2.75L86.09-2.75ZM110.59 0L106.59 0 106.59-27.05 110.59-27.05 110.59-22.1 110.84-22.1Q111.59-24.25 113.57-25.65 115.54-27.05 118.69-27.05L118.69-27.05 120.39-27.05 120.39-23.05 117.89-23.05Q114.59-23.05 112.59-21.75 110.59-20.45 110.59-18.4L110.59-18.4 110.59 0ZM142.69 0L126.19 0 126.19-36.65 141.14-36.65Q145.64-36.65 148.24-34.1 150.84-31.55 150.84-27.25L150.84-27.25Q150.84-23.55 149.04-21.7 147.24-19.85 144.94-19.45L144.94-19.45 144.94-19.1Q146.49-19 148.14-18.07 149.79-17.15 150.94-15.25 152.09-13.35 152.09-10.55L152.09-10.55Q152.09-7.55 150.86-5.15 149.64-2.75 147.51-1.38 145.39 0 142.69 0L142.69 0ZM130.39-20.7L140.64-20.7Q143.34-20.7 144.84-22.08 146.34-23.45 146.34-25.95L146.34-25.95 146.34-27.7Q146.34-30.2 144.84-31.58 143.34-32.95 140.64-32.95L140.64-32.95 130.39-32.95 130.39-20.7ZM130.39-3.7L141.39-3.7Q144.34-3.7 145.96-5.23 147.59-6.75 147.59-9.5L147.59-9.5 147.59-11.35Q147.59-14.1 145.96-15.6 144.34-17.1 141.39-17.1L141.39-17.1 130.39-17.1 130.39-3.7ZM170.09 0.65Q166.49 0.65 163.74-1.1 160.99-2.85 159.46-6.08 157.94-9.3 157.94-13.55L157.94-13.55Q157.94-17.8 159.46-21 160.99-24.2 163.74-25.95 166.49-27.7 170.09-27.7L170.09-27.7Q173.69-27.7 176.46-25.95 179.24-24.2 180.76-21 182.28-17.8 182.28-13.55L182.28-13.55Q182.28-9.3 180.76-6.08 179.24-2.85 176.46-1.1 173.69 0.65 170.09 0.65L170.09 0.65ZM170.09-2.9Q173.69-2.9 175.84-5.13 177.99-7.35 177.99-11.6L177.99-11.6 177.99-15.45Q177.99-19.7 175.84-21.93 173.69-24.15 170.09-24.15L170.09-24.15Q166.53-24.15 164.38-21.93 162.24-19.7 162.24-15.45L162.24-15.45 162.24-11.6Q162.24-7.35 164.38-5.13 166.53-2.9 170.09-2.9L170.09-2.9ZM191.48 10.5L189.18 10.5 189.18 7 193.48 7 195.58 1 185.43-27.05 189.48-27.05 196.13-8.25 197.33-4.1 197.63-4.1 198.98-8.25 205.68-27.05 209.68-27.05 197.53 6.45Q196.88 8.1 196.21 8.95 195.53 9.8 194.46 10.15 193.38 10.5 191.48 10.5L191.48 10.5Z" opacity="1" transform="matrix(1,0,0,1,0,0)" fill="#2b9348" class="wordmark-text-0" data-fill-palette-color="primary" id="text-0"></path></svg></g></svg></g></svg></g></svg></g><g><svg viewBox="0 0 130.00065727228917 130.00065727228917" height="130.00065727228917" width="130.00065727228917"><g><svg xmlns:x="http://ns.adobe.com/Extensibility/1.0/" xmlns:i="http://ns.adobe.com/AdobeIllustrator/10.0/" xmlns:graph="http://ns.adobe.com/Graphs/1.0/" xmlns="http://www.w3.org/2000/svg" xmlns:xlink="http://www.w3.org/1999/xlink" version="1.1" x="0" y="0" viewBox="6 6 88 88" enable-background="new 0 0 100 100" xml:space="preserve" height="130.00065727228917" width="130.00065727228917" class="icon-icon-0" data-fill-palette-color="accent" id="icon-0"><g fill="#2b9348" data-fill-palette-color="accent"><path d="M24 50A1.5 1.5 0 0 0 22.5 48.5H7.5A1.5 1.5 0 1 0 7.5 51.5H22.5A1.5 1.5 0 0 0 24 50" fill="#2b9348" data-fill-palette-color="accent"></path><path d="M92.5 48.5H77.5A1.5 1.5 0 1 0 77.5 51.5H92.5A1.5 1.5 0 1 0 92.5 48.5" fill="#2b9348" data-fill-palette-color="accent"></path><path d="M50 24A1.5 1.5 0 0 0 51.5 22.5V7.5A1.5 1.5 0 1 0 48.5 7.5V22.5A1.5 1.5 0 0 0 50 24" fill="#2b9348" data-fill-palette-color="accent"></path><path d="M50 76A1.5 1.5 0 0 0 48.5 77.5V92.5A1.5 1.5 0 1 0 51.5 92.5V77.5A1.5 1.5 0 0 0 50 76" fill="#2b9348" data-fill-palette-color="accent"></path><path d="M29.494 31.615C29.787 31.908 30.171 32.054 30.555 32.054S31.323 31.908 31.616 31.615A1.5 1.5 0 0 0 31.616 29.494L21.009 18.888A1.5 1.5 0 1 0 18.888 21.009z" fill="#2b9348" data-fill-palette-color="accent"></path><path d="M70.506 68.385A1.5 1.5 0 1 0 68.385 70.506L78.991 81.112C79.284 81.405 79.668 81.551 80.052 81.551S80.82 81.405 81.113 81.112A1.5 1.5 0 0 0 81.113 78.991z" fill="#2b9348" data-fill-palette-color="accent"></path><path d="M69.445 32.055C69.829 32.055 70.213 31.909 70.506 31.616L81.112 21.01A1.5 1.5 0 1 0 78.991 18.889L68.385 29.494A1.5 1.5 0 0 0 69.445 32.055" fill="#2b9348" data-fill-palette-color="accent"></path><path d="M29.494 68.385L18.888 78.991A1.5 1.5 0 1 0 21.01 81.112L31.616 70.506A1.5 1.5 0 1 0 29.494 68.385" fill="#2b9348" data-fill-palette-color="accent"></path><path d="M50 28.5C38.145 28.5 28.5 38.145 28.5 50S38.145 71.5 50 71.5 71.5 61.855 71.5 50 61.855 28.5 50 28.5M65 51.5A1.5 1.5 0 0 1 63.5 50C63.5 42.556 57.444 36.5 50 36.5A1.5 1.5 0 1 1 50 33.5C59.098 33.5 66.5 40.902 66.5 50A1.5 1.5 0 0 1 65 51.5" fill="#2b9348" data-fill-palette-color="accent"></path></g></svg><g></g></g></svg></g></svg></g><defs></defs></svg><rect width="395.52" height="88.89400019121554" fill="none" stroke="none" visibility="hidden"></rect></g></svg></g></svg>