<svg xmlns="http://www.w3.org/2000/svg" version="1.1" xmlns:xlink="http://www.w3.org/1999/xlink" xmlns:svgjs="http://svgjs.dev/svgjs" width="2000" height="666" viewBox="0 0 2000 666"><g transform="matrix(1,0,0,1,-1.2121212121212466,-0.09965437713339043)"><svg viewBox="0 0 396 132" data-background-color="#f9f6ed" preserveAspectRatio="xMidYMid meet" height="666" width="2000" xmlns="http://www.w3.org/2000/svg" xmlns:xlink="http://www.w3.org/1999/xlink"><g id="tight-bounds" transform="matrix(1,0,0,1,0.2400000000000091,0.019751317990397865)"><svg viewBox="0 0 395.52 131.96034762717855" height="131.96034762717855" width="395.52"><g><svg viewBox="0 0 671.9138931055288 224.17574562534503" height="131.96034762717855" width="395.52"><g transform="matrix(1,0,0,1,276.3938931055289,56.789846456558514)"><svg viewBox="0 0 395.52 110.596052712228" height="110.596052712228" width="395.52"><g id="textblocktransform"><svg viewBox="0 0 395.52 110.596052712228" height="110.596052712228" width="395.52" id="textblock"><g><svg viewBox="0 0 395.52 110.596052712228" height="110.596052712228" width="395.52"><g transform="matrix(1,0,0,1,0,0)"><svg width="395.52" viewBox="1.75 -36 163.13 45.62037037037037" height="110.596052712228" data-palette-color="#21272d"><path d="M21.8-7.9L17.25-7.9Q17.25-9.75 16.2-11.18 15.15-12.6 13.5-13.85 11.85-15.1 9.98-16.4 8.1-17.7 6.45-19.25 4.8-20.8 3.75-22.78 2.7-24.75 2.7-27.35L2.7-27.35 7.25-27.35Q7.25-25.55 8.3-24.13 9.35-22.7 11-21.43 12.65-20.15 14.53-18.85 16.4-17.55 18.05-16.03 19.7-14.5 20.75-12.53 21.8-10.55 21.8-7.9L21.8-7.9ZM7.25-27.25L2.7-27.25Q2.7-30 3.95-31.95 5.2-33.9 7.45-34.95 9.7-36 12.6-36L12.6-36 12.6-32.1Q10.1-32.1 8.68-30.8 7.25-29.5 7.25-27.25L7.25-27.25ZM17.25-8L21.8-8Q21.8-5.3 20.55-3.33 19.3-1.35 17.07-0.3 14.85 0.75 11.9 0.75L11.9 0.75 11.9-3.2Q14.4-3.2 15.83-4.48 17.25-5.75 17.25-8L17.25-8ZM21.55-28.55L17.3-27.7Q17.05-29.95 15.73-31.03 14.4-32.1 12.6-32.1L12.6-32.1 12.6-36Q14.95-36 16.85-35.05 18.75-34.1 20-32.45 21.25-30.8 21.55-28.55L21.55-28.55ZM1.75-9.05L5.9-9.9Q6.2-6.75 7.78-4.98 9.35-3.2 11.9-3.2L11.9-3.2 11.9 0.75Q7.65 0.75 4.98-1.85 2.3-4.45 1.75-9.05L1.75-9.05ZM43.95-8.95L39.4-8.95 39.4-16.3 43.95-16.3 43.95-8.95ZM29.9-8.95L25.35-8.95 25.35-16.3 29.9-16.3 29.9-8.95ZM34.8-22.05L34.5-22.05 34.5-26 34.8-26 34.8-22.05ZM34.8 0.75L34.5 0.75 34.5-3.2 34.8-3.2 34.8 0.75ZM29.9-16.25L25.35-16.25Q25.35-19.05 26.57-21.25 27.8-23.45 29.87-24.73 31.95-26 34.6-26L34.6-26 34.6-22.05Q32.4-22.05 31.15-20.55 29.9-19.05 29.9-16.25L29.9-16.25ZM43.95-16.25L43.95-16.25 39.4-16.25Q39.4-19.05 38.17-20.55 36.95-22.05 34.7-22.05L34.7-22.05 34.7-26Q37.35-26 39.42-24.73 41.5-23.45 42.72-21.25 43.95-19.05 43.95-16.25ZM25.35-9L25.35-9 29.9-9Q29.9-6.25 31.15-4.73 32.4-3.2 34.6-3.2L34.6-3.2 34.6 0.75Q31.95 0.75 29.87-0.53 27.8-1.8 26.57-4 25.35-6.2 25.35-9ZM39.4-9L43.95-9Q43.95-6.2 42.72-4 41.5-1.8 39.42-0.53 37.35 0.75 34.7 0.75L34.7 0.75 34.7-3.2Q36.95-3.2 38.17-4.73 39.4-6.25 39.4-9L39.4-9ZM53.65 0L49.1 0 49.1-36 53.65-36 53.65 0ZM78.09 0L73.54 0 73.54-17.2 78.09-17.2 78.09 0ZM67.44 0.75L67.44 0.75 67.79-3Q69.59-3 70.87-3.9 72.14-4.8 72.84-6.55 73.54-8.3 73.54-10.7L73.54-10.7 75.79-10.8Q75.79-7.4 74.69-4.8 73.59-2.2 71.72-0.73 69.84 0.75 67.44 0.75ZM67.79-3L67.44 0.75Q65.19 0.75 63.34-0.3 61.49-1.35 60.39-3.18 59.29-5 59.29-7.25L59.29-7.25 63.59-7.4Q63.59-5.5 64.87-4.25 66.14-3 67.79-3L67.79-3ZM63.59-7.4L59.29-7.25Q59.29-9.6 60.47-11.38 61.64-13.15 63.64-14.2 65.64-15.25 68.19-15.25L68.19-15.25 68.44-11.75Q66.34-11.75 64.97-10.53 63.59-9.3 63.59-7.4L63.59-7.4ZM75.89-11.75L68.44-11.75 68.19-15.25 75.89-15.25 75.89-11.75ZM75.79-10.8L73.54-10.7 73.54-17.15 75.79-17.15 75.79-10.8ZM78.09-17.1L78.09-17.1 73.54-17.1Q73.54-19.3 72.22-20.7 70.89-22.1 68.79-22.1L68.79-22.1 68.79-26Q71.49-26 73.57-24.85 75.64-23.7 76.87-21.68 78.09-19.65 78.09-17.1ZM64.09-17.7L64.09-17.7 59.89-18.55Q60.19-20.8 61.42-22.45 62.64-24.1 64.57-25.05 66.49-26 68.84-26L68.84-26 68.84-22.1Q66.99-22.1 65.67-21.03 64.34-19.95 64.09-17.7ZM87.79 0L83.24 0 83.24-25.25 87.79-25.25 87.79 0ZM87.79-16.9L85.74-16.9Q85.74-19.45 86.59-21.48 87.44-23.5 88.92-24.65 90.39-25.8 92.19-25.8L92.19-25.8 91.79-21.55Q90.04-21.55 88.92-20.23 87.79-18.9 87.79-16.9L87.79-16.9ZM96.34-24.2L94.79-20.4Q94.19-20.9 93.37-21.23 92.54-21.55 91.79-21.55L91.79-21.55 92.19-25.8Q93.34-25.8 94.44-25.38 95.54-24.95 96.34-24.2L96.34-24.2ZM107.74-16.55L107.74-16.55 107.74-20.25Q110.24-20.25 111.64-21.75 113.04-23.25 113.04-25.95L113.04-25.95 117.59-25.95Q117.59-23.25 116.31-21.13 115.04-19 112.79-17.78 110.54-16.55 107.74-16.55ZM108.24 0L103.39 0 103.39-3.95 108.24-3.95 108.24 0ZM108.24-16.3L103.39-16.3 103.39-20.25 108.24-20.25 108.24-16.3ZM118.09-9.35L113.54-9.35 113.54-10.55 118.09-10.55 118.09-9.35ZM118.09-10.5L113.54-10.5Q113.54-13.25 112.14-14.78 110.74-16.3 108.24-16.3L108.24-16.3 108.24-20Q111.04-20 113.29-18.75 115.54-17.5 116.81-15.35 118.09-13.2 118.09-10.5L118.09-10.5ZM107.74-31.3L103.39-31.3 103.39-35.25 107.74-35.25 107.74-31.3ZM117.59-25.9L117.59-25.9 113.04-25.9Q113.04-28.5 111.64-29.9 110.24-31.3 107.74-31.3L107.74-31.3 107.74-35.25Q110.64-35.25 112.86-34.08 115.09-32.9 116.34-30.78 117.59-28.65 117.59-25.9ZM113.54-9.4L118.09-9.4Q118.09-6.6 116.84-4.5 115.59-2.4 113.36-1.2 111.14 0 108.24 0L108.24 0 108.24-3.95Q110.74-3.95 112.14-5.38 113.54-6.8 113.54-9.4L113.54-9.4ZM104.64 0L100.09 0 100.09-35.25 104.64-35.25 104.64 0ZM140.59-8.95L136.04-8.95 136.04-16.3 140.59-16.3 140.59-8.95ZM126.54-8.95L121.99-8.95 121.99-16.3 126.54-16.3 126.54-8.95ZM131.44-22.05L131.14-22.05 131.14-26 131.44-26 131.44-22.05ZM131.44 0.75L131.14 0.75 131.14-3.2 131.44-3.2 131.44 0.75ZM126.54-16.25L121.99-16.25Q121.99-19.05 123.21-21.25 124.44-23.45 126.51-24.73 128.59-26 131.24-26L131.24-26 131.24-22.05Q129.04-22.05 127.79-20.55 126.54-19.05 126.54-16.25L126.54-16.25ZM140.59-16.25L140.59-16.25 136.04-16.25Q136.04-19.05 134.81-20.55 133.59-22.05 131.34-22.05L131.34-22.05 131.34-26Q133.99-26 136.06-24.73 138.14-23.45 139.36-21.25 140.59-19.05 140.59-16.25ZM121.99-9L121.99-9 126.54-9Q126.54-6.25 127.79-4.73 129.04-3.2 131.24-3.2L131.24-3.2 131.24 0.75Q128.59 0.75 126.51-0.53 124.44-1.8 123.21-4 121.99-6.2 121.99-9ZM136.04-9L140.59-9Q140.59-6.2 139.36-4 138.14-1.8 136.06-0.53 133.99 0.75 131.34 0.75L131.34 0.75 131.34-3.2Q133.59-3.2 134.81-4.73 136.04-6.25 136.04-9L136.04-9ZM145.53 9.25L145.53 9.25 146.48 5.5Q148.43 6 149.73 5.25 151.03 4.5 151.78 2.15L151.78 2.15 155.98 2.15Q154.48 6.85 151.86 8.55 149.23 10.25 145.53 9.25ZM155.98 2.15L151.78 2.15 160.33-25.25 164.88-25.25 155.98 2.15ZM154.88-4.5L152.63 1.85 143.83-25.25 148.38-25.25 154.88-4.5Z" opacity="1" transform="matrix(1,0,0,1,0,0)" fill="#21272d" class="wordmark-text-0" data-fill-palette-color="primary" id="text-0"></path></svg></g></svg></g></svg></g></svg></g><g><svg viewBox="0 0 224.17574562534503 224.17574562534503" height="224.17574562534503" width="224.17574562534503"><g><svg></svg></g><g id="icon-0"><svg viewBox="0 0 224.17574562534503 224.17574562534503" height="224.17574562534503" width="224.17574562534503"><g><path d="M0 112.088c0-61.904 50.183-112.088 112.088-112.088 61.904 0 112.088 50.183 112.088 112.088 0 61.904-50.183 112.088-112.088 112.088-61.904 0-112.088-50.183-112.088-112.088zM112.088 214.202c56.396 0 102.114-45.718 102.114-102.114 0-56.396-45.718-102.114-102.114-102.114-56.396 0-102.114 45.718-102.114 102.114 0 56.396 45.718 102.114 102.114 102.114z" data-fill-palette-color="accent" fill="#2b9348" stroke="transparent"></path></g><g transform="matrix(1,0,0,1,50.119026186093166,55.46261985280493)"><svg viewBox="0 0 123.9376932531587 113.25050591973518" height="113.25050591973518" width="123.9376932531587"><g><svg xmlns="http://www.w3.org/2000/svg" xmlns:xlink="http://www.w3.org/1999/xlink" version="1.1" x="0" y="0" viewBox="0.040999999999997816 1.072 23.91850019651093 21.85600019651093" enable-background="new 0 0 24 24" xml:space="preserve" height="113.25050591973518" width="123.9376932531587" class="icon-dxe-0" data-fill-palette-color="accent" id="dxe-0"><g fill="#2b9348" data-fill-palette-color="accent"><g fill="#2b9348" data-fill-palette-color="accent"><path d="M20.118 22.928A0.65 0.65 0 0 1 19.468 22.278V16.798A0.65 0.65 0 1 1 20.768 16.798V22.278A0.65 0.65 0 0 1 20.118 22.928" fill="#2b9348" data-fill-palette-color="accent"></path><path d="M17.136 20.119A0.64 0.64 0 0 1 16.677 19.929L16.585 19.837A0.65 0.65 0 0 1 16.585 18.919L21.444 14.059A0.67 0.67 0 0 1 22.363 14.059L22.455 14.151A0.65 0.65 0 0 1 22.455 15.07L17.596 19.93A0.65 0.65 0 0 1 17.136 20.119" fill="#2b9348" data-fill-palette-color="accent"></path></g><g fill="#2b9348" data-fill-palette-color="accent"><path d="M13.854 22.928A0.65 0.65 0 0 1 13.204 22.278V16.798A0.65 0.65 0 1 1 14.504 16.798V22.278A0.65 0.65 0 0 1 13.854 22.928" fill="#2b9348" data-fill-palette-color="accent"></path><path d="M10.873 20.119A0.64 0.64 0 0 1 10.414 19.929L10.322 19.837A0.65 0.65 0 0 1 10.322 18.918L15.182 14.058A0.65 0.65 0 0 1 16.101 14.058L16.193 14.15A0.65 0.65 0 0 1 16.193 15.069L11.333 19.929A0.65 0.65 0 0 1 10.873 20.119" fill="#2b9348" data-fill-palette-color="accent"></path></g><g fill="#2b9348" data-fill-palette-color="accent"><path d="M7.591 22.928A0.65 0.65 0 0 1 6.941 22.278V16.798A0.65 0.65 0 1 1 8.241 16.798V22.278A0.65 0.65 0 0 1 7.591 22.928" fill="#2b9348" data-fill-palette-color="accent"></path><path d="M4.609 20.119A0.64 0.64 0 0 1 4.15 19.929L4.058 19.837A0.65 0.65 0 0 1 4.058 18.918L8.918 14.058A0.65 0.65 0 0 1 9.837 14.058L9.929 14.15A0.65 0.65 0 0 1 9.929 15.069L5.069 19.929A0.65 0.65 0 0 1 4.609 20.119" fill="#2b9348" data-fill-palette-color="accent"></path></g><path d="M23.309 22.928H0.691A0.65 0.65 0 1 1 0.691 21.628H23.31A0.65 0.65 0 1 1 23.309 22.928" fill="#2b9348" data-fill-palette-color="accent"></path><g fill="#2b9348" data-fill-palette-color="accent"><path d="M6.369 9.286A2.89 2.89 0 0 1 3.484 6.402 2.89 2.89 0 0 1 6.369 3.517 2.89 2.89 0 0 1 9.253 6.402 2.886 2.886 0 0 1 6.369 9.286M6.369 4.517C5.33 4.517 4.484 5.363 4.484 6.402S5.33 8.286 6.369 8.286 8.253 7.441 8.253 6.402 7.408 4.517 6.369 4.517" fill="#2b9348" data-fill-palette-color="accent"></path><g fill="#2b9348" data-fill-palette-color="accent"><polygon points="7.282,9.842 6.369,11.731 5.456,9.842    " fill="#2b9348" data-fill-palette-color="accent"></polygon><polygon points="5.456,2.962 6.369,1.072 7.282,2.962    " fill="#2b9348" data-fill-palette-color="accent"></polygon></g><g fill="#2b9348" data-fill-palette-color="accent"><polygon points="4.582,9.48 2.601,10.17 3.291,8.189    " fill="#2b9348" data-fill-palette-color="accent"></polygon><polygon points="8.156,3.324 10.138,2.633 9.447,4.615    " fill="#2b9348" data-fill-palette-color="accent"></polygon></g><g fill="#2b9348" data-fill-palette-color="accent"><polygon points="2.929,7.315 1.04,6.402 2.929,5.489    " fill="#2b9348" data-fill-palette-color="accent"></polygon><polygon points="9.809,5.489 11.699,6.402 9.809,7.315    " fill="#2b9348" data-fill-palette-color="accent"></polygon></g><g fill="#2b9348" data-fill-palette-color="accent"><polygon points="3.291,4.615 2.601,2.633 4.582,3.324    " fill="#2b9348" data-fill-palette-color="accent"></polygon><polygon points="9.447,8.189 10.138,10.17 8.156,9.48    " fill="#2b9348" data-fill-palette-color="accent"></polygon></g></g></g></svg></g></svg></g></svg></g></svg></g></svg></g><defs></defs></svg><rect width="395.52" height="131.96034762717855" fill="none" stroke="none" visibility="hidden"></rect></g></svg></g></svg>